<svg width="131" height="32" viewBox="0 0 131 32" fill="none" xmlns="http://www.w3.org/2000/svg">
<rect width="131" height="32" rx="8" fill="#4586D6"/>
<path d="M28.74 20.12C27.58 20.12 26.676 19.796 26.028 19.148C25.38 18.492 25.056 17.556 25.056 16.34V11.6H26.616V16.28C26.616 17.928 27.328 18.752 28.752 18.752C30.168 18.752 30.876 17.928 30.876 16.28V11.6H32.412V16.34C32.412 17.556 32.088 18.492 31.44 19.148C30.8 19.796 29.9 20.12 28.74 20.12ZM34.5968 11.6H36.1568V20H34.5968V11.6ZM40.9008 9.896H42.2448L38.2848 21.2H36.9408L40.9008 9.896ZM46.4939 20.12C45.3339 20.12 44.4299 19.796 43.7819 19.148C43.1339 18.492 42.8099 17.556 42.8099 16.34V11.6H44.3699V16.28C44.3699 17.928 45.0819 18.752 46.5059 18.752C47.9219 18.752 48.6299 17.928 48.6299 16.28V11.6H50.1659V16.34C50.1659 17.556 49.8419 18.492 49.1939 19.148C48.5539 19.796 47.6539 20.12 46.4939 20.12ZM57.5255 20L55.2455 16.808L52.9895 20H51.2135L54.3335 15.716L51.3815 11.6H53.1455L55.2935 14.588L57.4175 11.6H59.1095L56.1695 15.656L59.3255 20H57.5255ZM63.8702 11.6H67.5422C68.4382 11.6 69.2342 11.776 69.9302 12.128C70.6262 12.472 71.1662 12.964 71.5502 13.604C71.9342 14.236 72.1262 14.968 72.1262 15.8C72.1262 16.632 71.9342 17.368 71.5502 18.008C71.1662 18.64 70.6262 19.132 69.9302 19.484C69.2342 19.828 68.4382 20 67.5422 20H63.8702V11.6ZM67.4702 18.68C68.0862 18.68 68.6262 18.564 69.0902 18.332C69.5622 18.092 69.9222 17.756 70.1702 17.324C70.4262 16.884 70.5542 16.376 70.5542 15.8C70.5542 15.224 70.4262 14.72 70.1702 14.288C69.9222 13.848 69.5622 13.512 69.0902 13.28C68.6262 13.04 68.0862 12.92 67.4702 12.92H65.4302V18.68H67.4702ZM79.6643 16.832C79.6643 16.936 79.6563 17.084 79.6403 17.276H74.6123C74.7003 17.748 74.9283 18.124 75.2963 18.404C75.6723 18.676 76.1363 18.812 76.6883 18.812C77.3923 18.812 77.9723 18.58 78.4283 18.116L79.2323 19.04C78.9443 19.384 78.5803 19.644 78.1403 19.82C77.7003 19.996 77.2043 20.084 76.6523 20.084C75.9483 20.084 75.3283 19.944 74.7923 19.664C74.2563 19.384 73.8403 18.996 73.5443 18.5C73.2563 17.996 73.1123 17.428 73.1123 16.796C73.1123 16.172 73.2523 15.612 73.5323 15.116C73.8203 14.612 74.2163 14.22 74.7203 13.94C75.2243 13.66 75.7923 13.52 76.4243 13.52C77.0483 13.52 77.6043 13.66 78.0923 13.94C78.5883 14.212 78.9723 14.6 79.2443 15.104C79.5243 15.6 79.6643 16.176 79.6643 16.832ZM76.4243 14.72C75.9443 14.72 75.5363 14.864 75.2003 15.152C74.8723 15.432 74.6723 15.808 74.6003 16.28H78.2363C78.1723 15.816 77.9763 15.44 77.6483 15.152C77.3203 14.864 76.9123 14.72 76.4243 14.72ZM83.0851 20.084C82.5651 20.084 82.0571 20.016 81.5611 19.88C81.0651 19.744 80.6691 19.572 80.3731 19.364L80.9491 18.224C81.2371 18.416 81.5811 18.572 81.9811 18.692C82.3891 18.804 82.7891 18.86 83.1811 18.86C84.0771 18.86 84.5251 18.624 84.5251 18.152C84.5251 17.928 84.4091 17.772 84.1771 17.684C83.9531 17.596 83.5891 17.512 83.0851 17.432C82.5571 17.352 82.1251 17.26 81.7891 17.156C81.4611 17.052 81.1731 16.872 80.9251 16.616C80.6851 16.352 80.5651 15.988 80.5651 15.524C80.5651 14.916 80.8171 14.432 81.3211 14.072C81.8331 13.704 82.5211 13.52 83.3851 13.52C83.8251 13.52 84.2651 13.572 84.7051 13.676C85.1451 13.772 85.5051 13.904 85.7851 14.072L85.2091 15.212C84.6651 14.892 84.0531 14.732 83.3731 14.732C82.9331 14.732 82.5971 14.8 82.3651 14.936C82.1411 15.064 82.0291 15.236 82.0291 15.452C82.0291 15.692 82.1491 15.864 82.3891 15.968C82.6371 16.064 83.0171 16.156 83.5291 16.244C84.0411 16.324 84.4611 16.416 84.7891 16.52C85.1171 16.624 85.3971 16.8 85.6291 17.048C85.8691 17.296 85.9891 17.648 85.9891 18.104C85.9891 18.704 85.7291 19.184 85.2091 19.544C84.6891 19.904 83.9811 20.084 83.0851 20.084ZM87.2809 13.592H88.7809V20H87.2809V13.592ZM88.0369 12.536C87.7649 12.536 87.5369 12.452 87.3529 12.284C87.1689 12.108 87.0769 11.892 87.0769 11.636C87.0769 11.38 87.1689 11.168 87.3529 11C87.5369 10.824 87.7649 10.736 88.0369 10.736C88.3089 10.736 88.5369 10.82 88.7209 10.988C88.9049 11.148 88.9969 11.352 88.9969 11.6C88.9969 11.864 88.9049 12.088 88.7209 12.272C88.5449 12.448 88.3169 12.536 88.0369 12.536ZM97.1096 13.592V19.028C97.1096 21.284 95.9576 22.412 93.6536 22.412C93.0376 22.412 92.4536 22.332 91.9016 22.172C91.3496 22.02 90.8936 21.796 90.5336 21.5L91.2056 20.372C91.4856 20.604 91.8376 20.788 92.2616 20.924C92.6936 21.068 93.1296 21.14 93.5696 21.14C94.2736 21.14 94.7896 20.98 95.1176 20.66C95.4456 20.34 95.6096 19.852 95.6096 19.196V18.86C95.3536 19.14 95.0416 19.352 94.6736 19.496C94.3056 19.64 93.9016 19.712 93.4616 19.712C92.8536 19.712 92.3016 19.584 91.8056 19.328C91.3176 19.064 90.9296 18.696 90.6416 18.224C90.3616 17.752 90.2216 17.212 90.2216 16.604C90.2216 15.996 90.3616 15.46 90.6416 14.996C90.9296 14.524 91.3176 14.16 91.8056 13.904C92.3016 13.648 92.8536 13.52 93.4616 13.52C93.9256 13.52 94.3456 13.596 94.7216 13.748C95.1056 13.9 95.4256 14.132 95.6816 14.444V13.592H97.1096ZM93.6896 18.44C94.2576 18.44 94.7216 18.272 95.0816 17.936C95.4496 17.592 95.6336 17.148 95.6336 16.604C95.6336 16.068 95.4496 15.632 95.0816 15.296C94.7216 14.96 94.2576 14.792 93.6896 14.792C93.1136 14.792 92.6416 14.96 92.2736 15.296C91.9136 15.632 91.7336 16.068 91.7336 16.604C91.7336 17.148 91.9136 17.592 92.2736 17.936C92.6416 18.272 93.1136 18.44 93.6896 18.44ZM102.718 13.52C103.526 13.52 104.174 13.756 104.662 14.228C105.15 14.7 105.394 15.4 105.394 16.328V20H103.894V16.52C103.894 15.96 103.762 15.54 103.498 15.26C103.234 14.972 102.858 14.828 102.37 14.828C101.818 14.828 101.382 14.996 101.062 15.332C100.742 15.66 100.582 16.136 100.582 16.76V20H99.0817V13.592H100.51V14.42C100.758 14.124 101.07 13.9 101.446 13.748C101.822 13.596 102.246 13.52 102.718 13.52Z" fill="white"/>
</svg>
